<svg width="160" height="160" viewBox="0 0 160 160" fill="none" xmlns="http://www.w3.org/2000/svg">
<g filter="url(#filter0_d_50_2760)">
<path d="M140 75C140 92.2391 133.152 108.772 120.962 120.962C108.772 133.152 92.2391 140 75 140C57.7609 140 41.2279 133.152 29.0381 120.962C16.8482 108.772 10 92.2391 10 75C10 57.7609 16.8482 41.2279 29.0381 29.0381C41.2279 16.8482 57.7609 10 75 10C92.2391 10 108.772 16.8482 120.962 29.0381C133.152 41.2279 140 57.7609 140 75ZM107.744 50.3812C107.163 49.8029 106.472 49.3475 105.712 49.0424C104.952 48.7372 104.137 48.5885 103.318 48.6052C102.499 48.6219 101.692 48.8036 100.944 49.1395C100.197 49.4754 99.5251 49.9585 98.9688 50.56L70.7506 86.5131L53.745 69.4994C52.5898 68.423 51.062 67.837 49.4833 67.8648C47.9046 67.8927 46.3983 68.5322 45.2818 69.6487C44.1653 70.7652 43.5258 72.2714 43.498 73.8501C43.4701 75.4288 44.0561 76.9567 45.1325 78.1119L66.6312 99.6188C67.2104 100.197 67.9001 100.652 68.6591 100.958C69.4182 101.264 70.231 101.414 71.0492 101.399C71.8674 101.383 72.6741 101.204 73.4213 100.87C74.1685 100.536 74.8408 100.055 75.3981 99.4563L107.833 58.9125C108.939 57.7628 109.55 56.2254 109.535 54.6303C109.519 53.0352 108.879 51.5097 107.752 50.3812H107.744Z" fill="#2F70D9"/>
<path d="M97.7888 49.6339L70.6154 84.256L54.8059 68.439L54.7871 68.4201L54.7676 68.402C53.3281 67.0606 51.4241 66.3304 49.4568 66.3651C47.4895 66.3998 45.6125 67.1967 44.2212 68.588C42.8299 69.9793 42.0329 71.8564 41.9982 73.8237C41.9635 75.791 42.6937 77.6949 44.0351 79.1345L44.053 79.1537L44.0716 79.1723L65.5704 100.679L65.5716 100.68C66.2933 101.401 67.1527 101.968 68.0986 102.35C69.0445 102.731 70.0574 102.917 71.077 102.898C72.0966 102.879 73.1019 102.655 74.033 102.24C74.9641 101.824 75.8019 101.225 76.4964 100.478L76.5345 100.437L76.5694 100.393L108.964 59.9001C110.31 58.4732 111.053 56.5797 111.034 54.616C111.016 52.6283 110.218 50.7272 108.813 49.321L108.374 48.8812H108.324C107.71 48.3658 107.017 47.9499 106.271 47.6503C105.323 47.27 104.309 47.0847 103.288 47.1055C102.267 47.1263 101.261 47.3528 100.329 47.7713C99.3982 48.1899 98.5608 48.7919 97.8675 49.5415L97.8263 49.5861L97.7888 49.6339ZM138.5 75C138.5 91.8412 131.81 107.993 119.901 119.901C107.993 131.81 91.8412 138.5 75 138.5C58.1588 138.5 42.0073 131.81 30.0987 119.901C18.1902 107.993 11.5 91.8412 11.5 75C11.5 58.1588 18.1902 42.0073 30.0987 30.0987C42.0073 18.1902 58.1588 11.5 75 11.5C91.8412 11.5 107.993 18.1902 119.901 30.0987C131.81 42.0073 138.5 58.1588 138.5 75Z" stroke="white" stroke-width="3"/>
</g>
<defs>
<filter id="filter0_d_50_2760" x="0" y="0" width="160" height="160" filterUnits="userSpaceOnUse" color-interpolation-filters="sRGB">
<feFlood flood-opacity="0" result="BackgroundImageFix"/>
<feColorMatrix in="SourceAlpha" type="matrix" values="0 0 0 0 0 0 0 0 0 0 0 0 0 0 0 0 0 0 127 0" result="hardAlpha"/>
<feOffset dx="5" dy="5"/>
<feGaussianBlur stdDeviation="7.5"/>
<feComposite in2="hardAlpha" operator="out"/>
<feColorMatrix type="matrix" values="0 0 0 0 0 0 0 0 0 0 0 0 0 0 0 0 0 0 0.1 0"/>
<feBlend mode="normal" in2="BackgroundImageFix" result="effect1_dropShadow_50_2760"/>
<feBlend mode="normal" in="SourceGraphic" in2="effect1_dropShadow_50_2760" result="shape"/>
</filter>
</defs>
</svg>
