<svg width="167" height="103" viewBox="0 0 167 103" fill="none" xmlns="http://www.w3.org/2000/svg">
<path d="M2.8125 84.5625C4.22917 85.0625 5.66667 85.6458 7.125 86.3125C8.625 86.9792 10.1667 87.625 11.75 88.25C13.3333 88.8333 14.9792 89.3333 16.6875 89.75C18.4375 90.1667 20.2917 90.375 22.25 90.375C24.5417 90.375 26.8542 90.1042 29.1875 89.5625C31.5208 89.0208 33.7917 88.2292 36 87.1875C38.25 86.1042 40.3958 84.8125 42.4375 83.3125C44.4792 81.7708 46.3542 80 48.0625 78C49.9375 75.875 51.5 73.9583 52.75 72.25C54 70.5 55 68.9583 55.75 67.625C56.5417 66.25 57.1042 65.0833 57.4375 64.125C57.7708 63.125 57.9375 62.2708 57.9375 61.5625C57.9375 60.5208 57.5833 59.625 56.875 58.875C56.1667 58.0833 55.2083 57.4375 54 56.9375C52.8333 56.4375 51.5 56.0833 50 55.875C48.5 55.625 46.9375 55.5 45.3125 55.5C44.3542 55.5 43.2292 55.5417 41.9375 55.625C40.6458 55.6667 39.3333 55.7292 38 55.8125C36.6667 55.8542 35.375 55.8958 34.125 55.9375C32.875 55.9792 31.7917 56 30.875 56C29.5 56 28.0625 55.8542 26.5625 55.5625C25.1042 55.2292 23.6667 54.7083 22.25 54C20.8333 53.2917 19.5208 52.3333 18.3125 51.125C17.1042 49.9167 16.1042 48.4167 15.3125 46.625C15.0625 46.0417 14.8333 45.3542 14.625 44.5625C14.4167 43.7708 14.3125 42.9167 14.3125 42C14.3125 41 14.375 40.0625 14.5 39.1875C14.6667 38.2708 14.8542 37.3958 15.0625 36.5625C15.6458 34.4792 16.6042 32.375 17.9375 30.25C19.3125 28.0833 20.9375 25.9792 22.8125 23.9375C24.7292 21.8958 26.7917 19.9167 29 18C31.25 16.0833 33.5417 14.2917 35.875 12.625C38.25 10.9167 40.5625 9.39583 42.8125 8.0625C45.1042 6.6875 47.2292 5.52083 49.1875 4.5625C51.9375 3.22917 54.7292 2.27083 57.5625 1.6875C60.4375 1.0625 63.2708 0.75 66.0625 0.75C67.7292 0.75 69.3125 0.979167 70.8125 1.4375C72.3125 1.85417 73.625 2.47917 74.75 3.3125C75.9167 4.14583 76.8333 5.1875 77.5 6.4375C78.1667 7.64583 78.5 9.04167 78.5 10.625C78.5 11.5417 78.3958 12.3125 78.1875 12.9375C77.9792 13.5625 77.7083 14.0833 77.375 14.5C77.0417 14.875 76.6667 15.1458 76.25 15.3125C75.875 15.4792 75.4792 15.5625 75.0625 15.5625C73.9375 15.5625 72.8958 15.4375 71.9375 15.1875C71.0208 14.9375 70.125 14.6667 69.25 14.375C68.375 14.0417 67.5 13.75 66.625 13.5C65.75 13.2083 64.7917 13.0625 63.75 13.0625C60.6667 13.0625 57.5208 13.6875 54.3125 14.9375C51.1458 16.1458 48.0417 17.7083 45 19.625C42 21.5 39.1458 23.6042 36.4375 25.9375C33.7708 28.2708 31.375 30.5417 29.25 32.75C28.125 33.9167 27.2917 35.0833 26.75 36.25C26.25 37.4167 26 38.5208 26 39.5625C26 41.1042 26.6667 42.3125 28 43.1875C29.3333 44.0625 30.9583 44.5 32.875 44.5C34 44.5 35.2708 44.4792 36.6875 44.4375C38.1042 44.3958 39.5417 44.3542 41 44.3125C42.5 44.2292 43.9375 44.1667 45.3125 44.125C46.7292 44.0417 47.9792 44 49.0625 44C51.6458 44 54.125 44.375 56.5 45.125C58.875 45.8333 60.9792 46.8958 62.8125 48.3125C64.6458 49.7292 66.1042 51.5 67.1875 53.625C68.3125 55.7083 68.875 58.1042 68.875 60.8125C68.875 62.4792 68.625 64.1667 68.125 65.875C67.625 67.5833 66.9375 69.3125 66.0625 71.0625C65.1875 72.7708 64.1875 74.4792 63.0625 76.1875C61.9375 77.8542 60.75 79.5 59.5 81.125C57.25 84.0417 54.7292 86.7917 51.9375 89.375C49.1875 91.9583 46.25 94.2083 43.125 96.125C40 98.0417 36.6875 99.5625 33.1875 100.688C29.7292 101.812 26.1667 102.375 22.5 102.375C20.9167 102.375 19.2917 102.229 17.625 101.938C15.9583 101.646 14.3125 101.208 12.6875 100.625C11.0625 100.083 9.52083 99.3958 8.0625 98.5625C6.64583 97.6875 5.39583 96.7083 4.3125 95.625C3.22917 94.5417 2.35417 93.3542 1.6875 92.0625C1.0625 90.7292 0.75 89.2917 0.75 87.75C0.75 87 0.854167 86.2917 1.0625 85.625C1.3125 84.9167 1.89583 84.5625 2.8125 84.5625ZM81.465 89.625C83.3817 88.25 85.3192 87.3958 87.2775 87.0625C89.2775 86.6875 91.3817 86.3958 93.59 86.1875L109.215 22.9375C109.048 22.9375 108.569 22.9375 107.777 22.9375C107.027 22.8958 106.173 22.8333 105.215 22.75C104.298 22.625 103.382 22.4375 102.465 22.1875C101.548 21.9375 100.861 21.5833 100.402 21.125C100.194 20.8333 99.9233 20.4583 99.59 20C99.2983 19.5 99.0067 18.9792 98.715 18.4375C98.4233 17.8542 98.1733 17.2708 97.965 16.6875C97.7567 16.1042 97.6525 15.5208 97.6525 14.9375C97.6525 13.9792 98.0483 13.1875 98.84 12.5625C99.6733 11.8958 100.673 11.375 101.84 11C103.048 10.5833 104.34 10.2917 105.715 10.125C107.09 9.95833 108.34 9.875 109.465 9.875C114.715 9.875 119.569 10.0417 124.027 10.375C128.527 10.6667 132.715 11.3333 136.59 12.375C140.507 13.4167 144.173 14.8958 147.59 16.8125C151.048 18.7292 154.34 21.2917 157.465 24.5C158.632 25.7083 159.736 27.0625 160.777 28.5625C161.861 30.0625 162.798 31.7083 163.59 33.5C164.423 35.25 165.09 37.1458 165.59 39.1875C166.09 41.1875 166.34 43.3125 166.34 45.5625C166.34 46.7708 166.277 48.0417 166.152 49.375C166.027 50.7083 165.861 51.8542 165.652 52.8125C164.444 57.6458 162.736 61.9375 160.527 65.6875C158.361 69.3958 155.819 72.7083 152.902 75.625C150.027 78.5 146.861 81 143.402 83.125C139.944 85.25 136.361 87.1042 132.652 88.6875C128.944 90.2708 125.173 91.6458 121.34 92.8125C117.507 93.9792 113.777 95.0208 110.152 95.9375H110.215C108.59 96.4375 106.84 96.875 104.965 97.25C103.09 97.625 101.194 97.9375 99.2775 98.1875C97.3608 98.4375 95.4442 98.6458 93.5275 98.8125C91.6525 98.9375 89.8817 99 88.215 99C86.3817 99 84.84 98.8958 83.59 98.6875C82.34 98.4375 81.3192 98.125 80.5275 97.75C79.7775 97.3333 79.2358 96.875 78.9025 96.375C78.5692 95.875 78.4025 95.3333 78.4025 94.75C78.4025 93.9167 78.6317 93.0625 79.09 92.1875C79.59 91.2708 80.3817 90.4167 81.465 89.625ZM108.965 71.6875C108.465 73.8125 107.944 76 107.402 78.25C106.861 80.5 106.34 82.7083 105.84 84.875L107.277 84.5625C108.194 84.3542 109.423 84.0417 110.965 83.625C112.548 83.2083 114.361 82.6875 116.402 82.0625C118.444 81.4375 120.59 80.6875 122.84 79.8125C125.09 78.9375 127.465 77.8958 129.965 76.6875C132.507 75.4375 135.007 74.0417 137.465 72.5C139.923 70.9167 142.277 69.2083 144.527 67.375C146.777 65.5417 148.757 63.5833 150.465 61.5C152.173 59.375 153.527 57.1667 154.527 54.875C155.569 52.5417 156.09 50.125 156.09 47.625C156.09 45.0833 155.59 42.6875 154.59 40.4375C153.59 38.1458 152.236 36.0417 150.527 34.125C148.861 32.1667 146.902 30.4375 144.652 28.9375C142.444 27.3958 140.132 26.0833 137.715 25C135.298 23.9167 132.84 23.1042 130.34 22.5625C127.882 21.9792 125.548 21.6875 123.34 21.6875C120.215 29.7708 117.548 37.9792 115.34 46.3125C113.132 54.6458 111.007 63.1042 108.965 71.6875Z" fill="#0D1555"/>
</svg>
