<svg width="20" height="20" viewBox="0 0 20 20" fill="none" xmlns="http://www.w3.org/2000/svg">
<path d="M9.47362 0.00291058C7.78254 0.022288 4.14687 0.28607 2.11337 2.05691C0.600759 3.47959 0.0726281 5.58297 0.0107275 8.18392C-0.0406368 10.7755 -0.102538 15.6423 4.83963 16.9675V18.9859C4.83963 18.9859 4.80868 19.7935 5.37106 19.9591C6.06382 20.1673 6.45827 19.5459 7.11678 18.8784L8.34492 17.5601C11.7264 17.827 14.3163 17.2119 14.6147 17.1206C15.3008 16.9125 19.1657 16.4437 19.7972 11.5762C20.4452 6.54934 19.4818 3.38208 17.7426 1.9494H17.7321C17.2072 1.49059 15.098 0.0316641 10.3857 0.0154121C10.3857 0.0154121 10.036 -0.00709065 9.47362 0.00228551V0.00291058ZM9.53157 1.41621C10.0116 1.41308 10.3033 1.43246 10.3033 1.43246C14.292 1.44246 16.1958 2.58198 16.6449 2.96578C18.1094 4.15717 18.8641 7.01253 18.3116 11.2093C17.7867 15.2785 14.6522 15.5361 14.072 15.7117C13.8251 15.7867 11.544 16.3205 8.67023 16.1449C8.67023 16.1449 6.53005 18.5965 5.86099 19.2278C5.75497 19.3384 5.63117 19.3709 5.55215 19.3547C5.43888 19.3284 5.40464 19.1953 5.41123 19.0128L5.43164 15.663C1.24018 14.5628 1.48712 10.4117 1.5319 8.2433C1.58327 6.07491 2.01196 4.30094 3.28817 3.09954C5.00624 1.62499 8.09336 1.42621 9.53025 1.41621H9.53157ZM9.84765 3.58398C9.81316 3.58365 9.77893 3.5898 9.74695 3.60209C9.71497 3.61437 9.68587 3.63254 9.66132 3.65555C9.63678 3.67856 9.61727 3.70595 9.60393 3.73615C9.59059 3.76635 9.58367 3.79876 9.58359 3.83151C9.58359 3.97152 9.70344 4.08216 9.84765 4.08216C10.5006 4.07038 11.1495 4.18141 11.757 4.40884C12.3645 4.63628 12.9185 4.97564 13.3872 5.40733C14.344 6.28931 14.8102 7.47446 14.828 9.02402C14.828 9.16092 14.9446 9.27468 15.0921 9.27468V9.26468C15.1616 9.26485 15.2284 9.23892 15.2778 9.19255C15.3273 9.14618 15.3555 9.08313 15.3561 9.01715C15.3881 8.28778 15.2635 7.55985 14.9899 6.87761C14.7163 6.19537 14.2994 5.57307 13.7645 5.04853C12.7221 4.08154 11.4011 3.58335 9.84765 3.58335V3.58398ZM6.37661 4.15717C6.19022 4.13132 6.00012 4.16684 5.83794 4.25781H5.82412C5.44762 4.4673 5.10845 4.73207 4.81922 5.04228C4.57886 5.30607 4.44847 5.57297 4.41423 5.82988C4.39382 5.98302 4.40765 6.13617 4.45572 6.28243L4.47284 6.29244C4.74349 7.04753 5.09711 7.77387 5.5291 8.4577C6.08556 9.41842 6.77037 10.3069 7.56655 11.1012L7.59026 11.1337L7.62779 11.1599L7.6515 11.1862L7.67916 11.2087C8.51892 11.9666 9.45721 12.6197 10.4713 13.152C11.6303 13.7509 12.3336 14.034 12.7557 14.1515V14.1578C12.8795 14.1934 12.9921 14.2097 13.1053 14.2097C13.4651 14.1846 13.8056 14.046 14.0727 13.8159C14.398 13.5413 14.6739 13.218 14.8893 12.8589V12.8526C15.0914 12.4913 15.0229 12.1494 14.7312 11.9181C14.147 11.4334 13.5152 11.0028 12.8446 10.6323C12.3955 10.4011 11.9391 10.5411 11.7541 10.7755L11.3596 11.2474C11.1574 11.4818 10.79 11.4493 10.79 11.4493L10.7795 11.4556C8.03937 10.7911 7.30841 8.15767 7.30841 8.15767C7.30841 8.15767 7.27417 7.7995 7.5277 7.61697L8.02159 7.23943C8.25799 7.05691 8.42262 6.62435 8.16909 6.19742C7.78149 5.55994 7.3289 4.96012 6.81782 4.40658C6.70609 4.27608 6.54934 4.18729 6.37529 4.15592L6.37661 4.15717ZM10.3033 4.89976C9.95368 4.89976 9.95367 5.40108 10.3066 5.40108C10.7414 5.40777 11.1706 5.49574 11.5696 5.65994C11.9685 5.82415 12.3295 6.06138 12.6319 6.35807C12.9077 6.64686 13.1196 6.98526 13.2551 7.35322C13.3906 7.72118 13.447 8.11121 13.4208 8.50021C13.422 8.56604 13.4503 8.62881 13.4996 8.67507C13.549 8.72134 13.6155 8.74742 13.6848 8.74774L13.6954 8.76087C13.7652 8.76038 13.8321 8.73381 13.8815 8.68691C13.9309 8.64001 13.9589 8.57654 13.9594 8.51021C13.9831 7.51696 13.6578 6.68373 13.0197 6.01615C12.3783 5.34857 11.4834 4.97415 10.3409 4.89976H10.3033ZM10.736 6.24743C10.3758 6.23743 10.362 6.74874 10.7189 6.75874C11.5868 6.80125 12.0082 7.21755 12.0636 8.07391C12.0648 8.13891 12.0927 8.20088 12.1415 8.24656C12.1902 8.29224 12.2558 8.31799 12.3243 8.31831H12.3349C12.3701 8.31688 12.4046 8.3088 12.4365 8.29455C12.4684 8.2803 12.497 8.26017 12.5206 8.23532C12.5442 8.21047 12.5624 8.18141 12.574 8.14984C12.5856 8.11826 12.5905 8.0848 12.5884 8.0514C12.5265 6.93502 11.8851 6.30619 10.7465 6.24806H10.736V6.24743Z" fill="white"/>
</svg>
