<svg width="283" height="9" viewBox="0 0 283 9" fill="none" xmlns="http://www.w3.org/2000/svg">
<path d="M188 3.5L188.777 2.74255C190.339 1.22003 192.833 1.22975 194.383 2.7644L197.868 6.21396C199.426 7.75716 201.937 7.75716 203.496 6.21396L206.959 2.78604C208.517 1.24284 211.028 1.24284 212.587 2.78604L216.049 6.21396C217.608 7.75716 220.119 7.75716 221.678 6.21396L225.14 2.78604C226.699 1.24284 229.21 1.24284 230.769 2.78604L234.231 6.21396C235.79 7.75716 238.301 7.75716 239.86 6.21396L243.322 2.78604C244.881 1.24284 247.392 1.24284 248.951 2.78604L252.413 6.21396C253.972 7.75715 256.483 7.75716 258.041 6.21396L261.504 2.78604C263.063 1.24284 265.574 1.24284 267.132 2.78604L270.598 6.21674C272.155 7.75884 274.664 7.7601 276.223 6.21956L281 1.5" stroke="#2F70D9" stroke-width="3" stroke-linecap="round" stroke-linejoin="round"/>
<path d="M2 7.5L7.28063 2.60503C8.85183 1.14858 11.2916 1.18867 12.8141 2.69595L16.3676 6.21396C17.9264 7.75716 20.4372 7.75716 21.996 6.21396L25.4585 2.78604C27.0173 1.24284 29.5281 1.24284 31.0869 2.78604L34.5495 6.21396C36.1082 7.75716 38.619 7.75716 40.1778 6.21396L43.6404 2.78604C45.1991 1.24284 47.7099 1.24284 49.2687 2.78604L52.7313 6.21396C54.2901 7.75716 56.8008 7.75716 58.3596 6.21396L61.8222 2.78604C63.381 1.24284 65.8918 1.24284 67.4505 2.78604L70.9131 6.21396C72.4719 7.75715 74.9827 7.75716 76.5414 6.21396L80.004 2.78604C81.5628 1.24284 84.0736 1.24284 85.6324 2.78604L89.1038 6.22279C90.6591 7.7625 93.163 7.76647 94.7231 6.2317L97.5 3.5" stroke="#2F70D9" stroke-width="3" stroke-linecap="round" stroke-linejoin="round"/>
<path d="M97.5 3.5L98.2771 2.74255C99.8392 1.22003 102.333 1.22975 103.883 2.7644L107.368 6.21396C108.926 7.75716 111.437 7.75716 112.996 6.21396L116.459 2.78604C118.017 1.24284 120.528 1.24284 122.087 2.78604L125.549 6.21396C127.108 7.75716 129.619 7.75716 131.178 6.21396L134.64 2.78604C136.199 1.24284 138.71 1.24284 140.269 2.78604L143.731 6.21396C145.29 7.75716 147.801 7.75716 149.36 6.21396L152.822 2.78604C154.381 1.24284 156.892 1.24284 158.451 2.78604L161.913 6.21396C163.472 7.75715 165.983 7.75716 167.541 6.21396L171.004 2.78604C172.563 1.24284 175.074 1.24284 176.632 2.78604L179.979 6.09936C181.583 7.68695 184.181 7.63457 185.72 5.98367L188.5 3" stroke="#2F70D9" stroke-width="3" stroke-linecap="round" stroke-linejoin="round"/>
</svg>
